#
# Object file
# Created by SpaceClaim
#

mtllib kleinquartic.mtl

# Klein Quartic\Solid
v 0.0241073693067245 0.0417551884760733 -0.03
v 0.0440408284489053 0.0338140353478963 -0.0211926328563072
v 0.0542709253038248 0.034 -6.7943336142425E-18
v 0.0440408284489053 0.0338140353478963 0.0211926328563072
v 0.0241073693067245 0.0417551884760733 0.03
v 0 0 0.0653333333333333
v 0.113160652761167 3.43444548798584E-16 0
v 0.113160652761167 3.43444548798584E-16 0
v 0.113160652761167 3.43444548798584E-16 0
v 0.113160652761167 3.43444548798584E-16 0
v 0.113160652761167 3.43444548798584E-16 0
v 0.113160652761167 3.43444548798584E-16 0
v 0.113160652761167 3.43444548798584E-16 0
v -1.38777878078145E-17 -4.93038065763132E-32 -0.0653333333333333
v 0.0241073693067245 0.0417551884760733 0.03
v 0.0440408284489053 0.0338140353478963 0.0211926328563072
v 0.0542709253038248 0.034 -6.7943336142425E-18
v 0.0440408284489053 0.0338140353478963 -0.0211926328563072
v 0.0241073693067245 0.0417551884760733 -0.03
v 0.126055945303024 0.218335301860961 -0.03
v 0.13764862050371 0.197111451732788 -0.0217604315566047
v 0.136674669359017 0.178282272961806 -0.00678525561703029
v 0.136220929757425 0.176405594222207 -0.00372382270671592
v 0.136220926310128 0.176405580709155 0.00372379256086133
v 0.13667466935902 0.178282272961799 0.00678525561702743
v 0.137648620503707 0.197111451732807 0.0217604315566161
v 0.126055945303024 0.218335301860961 0.03
v 0.126055945303024 0.218335301860961 0.03
v 0.137648620503707 0.197111451732807 0.0217604315566161
v 0.13667466935902 0.178282272961799 0.00678525561702743
v 0.136220926310128 0.176405580709155 0.00372379256086133
v 0.136220929757425 0.176405594222207 -0.00372382270671592
v 0.136674669359017 0.178282272961806 -0.00678525561703029
v 0.13764862050371 0.197111451732788 -0.0217604315566047
v 0.126055945303024 0.218335301860961 -0.03
v 0.150371309373189 0.260450747835016 -0.0658018678525648
v 0.147006483762278 0.210795028824858 -0.0328995974169664
v 0.144350994816984 0.161094562512607 0
v 0.144350994816984 0.161094562512607 0
v 0.144350994816984 0.161094562512607 0
v 0.144350994816984 0.161094562512607 0
v 0.144350994816984 0.161094562512607 0
v 0.144350994816984 0.161094562512607 0
v 0.147006483762282 0.210795028824934 0.0328995974170167
v 0.150371309373189 0.260450747835016 0.0658018678525648
vn 0.5 0.703318061777606 -0.505315449969019
vn 0.5 0.733813403189041 -0.459910740579212
vn 0.5 0.866025403784439 -2.68979410431042E-16
vn 0.5 0.73381340318904 0.459910740579212
vn 0.5 0.703318061777606 0.505315449969019
vn 0.5 6.5354615813819E-31 0.866025403784439
vn 0.5 0.150383733180438 0.852868531952443
vn 0.5 0.395211325370406 0.770589390206592
vn 0.5 0.832316360766512 0.239268626443981
vn 0.5 0.862729915662821 -0.0754790873051758
vn 0.5 0.832316360766512 -0.239268626443981
vn 0.5 0.718924271956364 -0.482853902533688
vn 0.5 0.296198132726022 -0.813797681349375
vn 0.5 1.68641888781916E-16 -0.866025403784439
vn 4.62592926927148E-16 4.62592926927148E-16 1
vn 0.612961424651785 -0.353893443525565 0.706426020555919
vn 0.866025403784439 -0.5 -2.26477787141421E-16
vn 0.612961424651785 -0.353893443525564 -0.706426020555919
vn 4.62592926927148E-16 4.62592926927148E-16 -1
vn -2.77555756156289E-15 1.38777878078145E-15 -1
vn 0.596156817888409 -0.344191299287104 -0.725347777262894
vn 0.843583776817577 -0.487043320629629 -0.226175187233826
vn 0.859327811164548 -0.496133143097984 -0.12412742355685
vn 0.859327920026146 -0.496133205949256 0.124126418695018
vn 0.843583776817605 -0.487043320629645 0.226175187233688
vn 0.596156817888062 -0.344191299286903 0.725347777263275
vn -3.40830407355417E-15 1.9677852743466E-15 1
vn -0.521716073911854 -0.520862822618888 0.675658388710956
vn -0.34761328200763 -0.531412277280171 0.772506309183159
vn -0.689996603811182 -0.510666157757096 0.512956881278183
vn -0.803279022482888 -0.503802007408748 0.317689076566779
vn -0.803278086102055 -0.503802064147109 -0.317691354225027
vn -0.689996603811183 -0.510666157757096 -0.512956881278182
vn -0.34761328200764 -0.531412277280171 -0.772506309183155
vn -0.521716073911858 -0.520862822618888 -0.675658388710954
vn -0.0333538159593285 -0.550454280872965 -0.834198781843739
vn -0.0423475766680609 -0.549909319647511 -0.834150120131355
vn -0.197882466474812 -0.540484954590995 -0.817752128289872
vn -0.535790543359078 -0.520010004719237 -0.665220330897127
vn -0.753264004497681 -0.506832580088527 -0.419182627608689
vn -0.753264622259985 -0.506832542656299 0.419181562757801
vn -0.535790543359073 -0.520010004719237 0.665220330897131
vn -0.197882466474801 -0.540484954590995 0.817752128289874
vn -0.0423475766680506 -0.549909319647511 0.834150120131356
vn -0.0333538159593285 -0.550454280872965 0.834198781843739
vt -0.0716959046676016 -0.0374965410159514
vt -0.0696315485032589 -0.0144793648220913
vt -0.0513351158442089 -0.00266666666666699
vt -0.033038683185159 -0.0144793648220913
vt -0.0309743270208163 -0.0374965410159514
vt 1.71797357842849E-16 -0.0653333333333336
vt 1.71797357842849E-16 0.0653333333333331
vt -0.0114078035209354 0.0653333333333331
vt -0.0342234105628061 0.0653333333333331
vt -0.0513351158442089 0.0653333333333331
vt -0.0570390176046768 0.0653333333333331
vt -0.0798546246465475 0.0653333333333331
vt -0.102670231688418 0.0653333333333331
vt -0.102670231688418 -0.0653333333333336
vt -0.0471238898038469 -0.10215657075974
vt -0.0235330765596566 -0.0990670815329931
vt 6.79433361424262E-18 -0.0937909829926056
vt 0.0235330765596566 -0.0990670815329931
vt 0.0471238898038469 -0.10215657075974
vt 0.047123889803847 0.101740581232858
vt 0.0243461840750697 0.089156525456091
vt 0.00684447953862575 0.0723630027356752
vt 0.00373345216157071 0.0705108814716445
vt -0.00373342178076118 0.0705108680453495
vt -0.0068444795386215 0.0723630027356705
vt -0.0243461840750863 0.0891565254561056
vt -0.047123889803847 0.101740581232859
vt 0.0310866507126667 0.0588145549675923
vt 0.0389806785564003 0.0342595028573904
vt 0.0218076082256676 0.0116585793116733
vt 0.0128650119524349 0.00938010563328455
vt -0.0128651091860701 0.00938012205240949
vt -0.0218076082256675 0.0116585793116818
vt -0.0389806785563999 0.0342595028573682
vt -0.0310866507126665 0.0588145549675923
vt -0.05172397803006 0.110971180666297
vt -0.0513683073472838 0.0513111496583215
vt -0.0513683073472838 -0.0083509948169838
vt -0.0314633974141405 -0.0083509948169838
vt -0.0104877991380468 -0.0083509948169838
vt 0.0104877991380468 -0.0083509948169838
vt 0.0314633974141405 -0.0083509948169838
vt 0.0513683073472842 -0.0083509948169838
vt 0.0513683073472842 0.0513111496584127
vt 0.05172397803006 0.110971180666297

o Klein Quartic\Solid
g Klein Quartic\Solid
s off

usemtl mtl_0

# face 0
f 14/14/14 1/1/1 12/12/12
f 12/12/12 1/1/1 2/2/2
f 12/12/12 2/2/2 11/11/11
f 11/11/11 2/2/2 3/3/3
f 11/11/11 3/3/3 10/10/10
f 10/10/10 3/3/3 9/9/9
f 3/3/3 4/4/4 9/9/9
f 9/9/9 4/4/4 5/5/5
f 9/9/9 5/5/5 8/8/8
f 8/8/8 5/5/5 6/6/6
f 8/8/8 6/6/6 7/7/7
f 13/13/13 14/14/14 12/12/12

# face 1
f 27/27/27 15/15/15 26/26/26
f 26/26/26 15/15/15 16/16/16
f 26/26/26 16/16/16 25/25/25
f 25/25/25 16/16/16 17/17/17
f 25/25/25 17/17/17 24/24/24
f 24/24/24 17/17/17 23/23/23
f 23/23/23 17/17/17 22/22/22
f 22/22/22 17/17/17 18/18/18
f 22/22/22 18/18/18 21/21/21
f 21/21/21 18/18/18 19/19/19
f 21/21/21 19/19/19 20/20/20

# face 2
f 28/28/28 29/29/29 45/45/45
f 45/45/45 29/29/29 44/44/44
f 44/44/44 29/29/29 43/43/43
f 43/43/43 29/29/29 30/30/30
f 43/43/43 30/30/30 42/42/42
f 42/42/42 30/30/30 31/31/31
f 42/42/42 31/31/31 32/32/32
f 42/42/42 32/32/32 41/41/41
f 41/41/41 32/32/32 33/33/33
f 41/41/41 33/33/33 40/40/40
f 40/40/40 33/33/33 34/34/34
f 40/40/40 34/34/34 37/37/37
f 37/37/37 34/34/34 36/36/36
f 34/34/34 35/35/35 36/36/36
f 38/38/38 39/39/39 37/37/37
f 37/37/37 39/39/39 40/40/40
