#
# Object file
# Created by SpaceClaim
#

mtllib kleinquartic.mtl

# Klein Quartic\Solid
v 0.0241073693067245 0.0417551884760733 0.03
v 0.126055945303024 0.218335301860961 0.03
v 0.150371309373189 0.260450747835016 0.0658018678525648
v 0.150371309373189 0.260450747835016 -0.0658018678525648
v 0.126055945303024 0.218335301860961 -0.03
v 0.0241073693067245 0.0417551884760733 -0.03
v -1.38777878078145E-17 -4.93038065763132E-32 -0.0653333333333333
v 0 0 0.0653333333333333
v 0.150371309373189 0.260450747835016 0.0658018678525648
v 0.147006483762282 0.210795028824934 0.0328995974170167
v 0.144350994816984 0.161094562512607 0
v 0.147006483762278 0.210795028824858 -0.0328995974169664
v 0.150371309373189 0.260450747835016 -0.0658018678525648
v 0.113160652761167 3.43444548798584E-16 0
v 0 0 0.0653333333333333
v -1.38777878078145E-17 -4.93038065763132E-32 -0.0653333333333333
v 0.0241073693067245 0.0417551884760733 -0.03
v 0.0341151938728972 0.0362395044925888 -0.0277389110131427
v 0.0440408284489053 0.0338140353478963 -0.0211926328563072
v 0.0513409329281545 0.0337069026377052 -0.0117359281792782
v 0.0542709253038248 0.034 -6.7943336142425E-18
v 0.0513409329281545 0.0337069026377052 0.0117359281792783
v 0.0440408284489053 0.0338140353478963 0.0211926328563072
v 0.0341151938728972 0.0362395044925888 0.0277389110131427
v 0.0241073693067245 0.0417551884760733 0.03
v 0 0 0.0653333333333333
v 0.113160652761167 3.43444548798584E-16 0
v 0.113160652761167 3.43444548798584E-16 0
v 0.113160652761167 3.43444548798584E-16 0
v 0.113160652761167 3.43444548798584E-16 0
v 0.113160652761167 3.43444548798584E-16 0
v 0.113160652761167 3.43444548798584E-16 0
v 0.113160652761167 3.43444548798584E-16 0
v -1.38777878078145E-17 -4.93038065763132E-32 -0.0653333333333333
v 0.0241073693067245 0.0417551884760733 0.03
v 0.0341151938728972 0.0362395044925888 0.0277389110131427
v 0.0440408284489053 0.0338140353478963 0.0211926328563072
v 0.0513409329281545 0.0337069026377052 0.0117359281792783
v 0.0542709253038248 0.034 -6.7943336142425E-18
v 0.0513409329281545 0.0337069026377052 -0.0117359281792782
v 0.0440408284489053 0.0338140353478963 -0.0211926328563072
v 0.0341151938728972 0.0362395044925888 -0.0277389110131427
v 0.0241073693067245 0.0417551884760733 -0.03
v 0.126055945303024 0.218335301860961 -0.03
v 0.133786517101676 0.208235229238631 -0.0276050373995686
v 0.13764862050371 0.197111451732788 -0.0217604315566047
v 0.136674669359017 0.178282272961806 -0.00678525561703029
v 0.136220929757425 0.176405594222207 -0.00372382270671592
v 0.136000000000006 0.175558909829391 -1.9714913348122E-08
v 0.136220926310128 0.176405580709155 0.00372379256086133
v 0.13667466935902 0.178282272961799 0.00678525561702743
v 0.137648620503707 0.197111451732807 0.0217604315566161
v 0.13378651710167 0.20823522923864 0.0276050373995727
v 0.126055945303024 0.218335301860961 0.03
v 0.126055945303024 0.218335301860961 0.03
v 0.13378651710167 0.20823522923864 0.0276050373995727
v 0.137648620503707 0.197111451732807 0.0217604315566161
v 0.13667466935902 0.178282272961799 0.00678525561702743
v 0.136220926310128 0.176405580709155 0.00372379256086133
v 0.136000000000006 0.175558909829391 -1.9714913348122E-08
v 0.136220929757425 0.176405594222207 -0.00372382270671592
v 0.136674669359017 0.178282272961806 -0.00678525561703029
v 0.13764862050371 0.197111451732788 -0.0217604315566047
v 0.133786517101676 0.208235229238631 -0.0276050373995686
v 0.126055945303024 0.218335301860961 -0.03
v 0.150371309373189 0.260450747835016 -0.0658018678525648
v 0.147006483762278 0.210795028824858 -0.0328995974169664
v 0.144350994816984 0.161094562512607 0
v 0.144350994816984 0.161094562512607 0
v 0.144350994816984 0.161094562512607 0
v 0.144350994816984 0.161094562512607 0
v 0.144350994816984 0.161094562512607 0
v 0.144350994816984 0.161094562512607 0
v 0.144350994816984 0.161094562512607 0
v 0.147006483762282 0.210795028824934 0.0328995974170167
v 0.150371309373189 0.260450747835016 0.0658018678525648
vn -0.866025403784439 0.499999999999999 -4.93038065763132E-32
vn -0.866025403784439 0.499999999999999 -4.93038065763132E-32
vn -0.866025403784439 0.499999999999999 -4.93038065763132E-32
vn -0.866025403784439 0.499999999999999 -4.93038065763132E-32
vn -0.866025403784439 0.499999999999999 -4.93038065763132E-32
vn -0.866025403784439 0.499999999999999 -4.93038065763132E-32
vn -0.866025403784439 0.499999999999999 -4.93038065763132E-32
vn -0.866025403784439 0.499999999999999 -4.93038065763132E-32
vn 0.997203749342689 -0.0747307319439909 -2.14832627724349E-15
vn 0.99816925150339 -0.0604826037233976 1.47280559404115E-15
vn 0.998931209060523 -0.0462216352467311 5.09306637766202E-15
vn 0.998169251503392 -0.060482603723371 1.47336557251043E-15
vn 0.997203749342689 -0.0747307319439813 -2.15031731179144E-15
vn 3.03501738827406E-15 -1 5.49832597103466E-32
vn 3.03501738827406E-15 -1 5.49832597103466E-32
vn 3.03501738827406E-15 -1 5.49832597103466E-32
vn 0.5 0.703318061777606 -0.505315449969019
vn 0.5 0.687692723074414 -0.526382673186056
vn 0.5 0.733813403189041 -0.459910740579212
vn 0.5 0.817869428948619 -0.284762352131141
vn 0.5 0.866025403784439 -2.68979410431042E-16
vn 0.5 0.817869428948619 0.284762352131141
vn 0.5 0.73381340318904 0.459910740579212
vn 0.5 0.687692723074414 0.526382673186056
vn 0.5 0.703318061777606 0.505315449969019
vn 0.5 6.5354615813819E-31 0.866025403784439
vn 0.5 0.224143868042016 0.836516303737808
vn 0.5 0.695585155007766 0.515908220648618
vn 0.5 0.780768302623561 0.374701024309148
vn 0.5 0.853901546563823 -0.144402731192703
vn 0.5 0.780768302623561 -0.374701024309147
vn 0.5 0.695585155007766 -0.515908220648618
vn 0.5 0.224143868042011 -0.836516303737809
vn 0.5 1.68641888781916E-16 -0.866025403784439
vn 4.62592926927148E-16 4.62592926927148E-16 1
vn 0.329812255639922 -0.190417194575746 0.924643265286461
vn 0.612961424651785 -0.353893443525565 0.706426020555919
vn 0.79700854342581 -0.460153097093322 0.391198809995242
vn 0.866025403784439 -0.499999999999999 -2.26477787141417E-16
vn 0.79700854342581 -0.460153097093322 -0.391198809995241
vn 0.612961424651785 -0.353893443525564 -0.706426020555919
vn 0.329812255639922 -0.190417194575746 -0.924643265286461
vn 4.62592926927148E-16 4.62592926927148E-16 -1
vn -2.77555756156289E-15 1.38777878078145E-15 -1
vn 0.339049874293242 -0.195750536191912 -0.920177651501228
vn 0.596156817888409 -0.344191299287104 -0.725347777262894
vn 0.843583776817577 -0.487043320629629 -0.226175187233826
vn 0.859327811164548 -0.496133143097984 -0.12412742355685
vn 0.866025403784252 -0.499999999999892 -6.57163778270732E-07
vn 0.859327920026146 -0.496133205949256 0.124126418695018
vn 0.843583776817605 -0.487043320629645 0.226175187233688
vn 0.596156817888061 -0.344191299286903 0.725347777263276
vn 0.339049874292967 -0.195750536191753 0.920177651501364
vn -3.70074341541719E-15 1.85037170770859E-15 1
vn -0.521716073911854 -0.520862822618888 0.675658388710956
vn -0.396891186154664 -0.528426368726286 0.750495142680814
vn -0.34761328200763 -0.531412277280171 0.772506309183159
vn -0.689996603811182 -0.510666157757096 0.512956881278183
vn -0.803279022482888 -0.503802007408748 0.317689076566779
vn -0.86602540378252 -0.500000000000135 -1.78557935214167E-06
vn -0.803278086102055 -0.503802064147109 -0.317691354225027
vn -0.689996603811183 -0.510666157757096 -0.512956881278182
vn -0.34761328200764 -0.531412277280171 -0.772506309183155
vn -0.396891186154574 -0.528426368726291 -0.750495142680858
vn -0.521716073911858 -0.520862822618888 -0.675658388710954
vn -0.0333538159593285 -0.550454280872965 -0.834198781843739
vn -0.0423475766680609 -0.549909319647511 -0.834150120131355
vn -0.197882466474812 -0.540484954590995 -0.817752128289872
vn -0.535790543359078 -0.520010004719237 -0.665220330897127
vn -0.753264004497681 -0.506832580088527 -0.419182627608689
vn -0.850188371599637 -0.500959617311008 0.161923422087004
vn -0.753264622259985 -0.506832542656299 0.419181562757801
vn -0.535790543359073 -0.520010004719237 0.665220330897131
vn -0.197882466474801 -0.540484954590995 0.817752128289874
vn -0.0423475766680506 -0.549909319647511 0.834150120131356
vn -0.0333538159593285 -0.550454280872965 0.834198781843739
vt 0.0765049018037405 -0.03
vt 0.280402053796339 -0.0299999999999998
vt 0.329032781936664 -0.0658018678525646
vt 0.329032781936664 0.065801867852565
vt 0.280402053796339 0.0300000000000002
vt 0.0765049018037405 0.03
vt 0.0282901631902915 0.0653333333333333
vt 0.0282901631902916 -0.0653333333333333
vt 5.42456356331082 0.0342170347366294
vt 5.47433358023532 0.00131476430109349
vt 5.52410536023136 -0.0315848331159101
vt 5.47433358023541 -0.0644844305328891
vt 5.42456356331085 -0.0973867009685001
vt 9.44185041134767E-48 0.0565803263805833
vt 0.0653333333333333 -0.0565803263805833
vt -0.0653333333333333 -0.0565803263805834
vt -0.0716959046676016 -0.0374965410159514
vt -0.0726857521024499 -0.0259406138853668
vt -0.0696315485032589 -0.0144793648220913
vt -0.0622848283126721 -0.00604989337914411
vt -0.0513351158442089 -0.00266666666666699
vt -0.0403854033757457 -0.00604989337914411
vt -0.033038683185159 -0.0144793648220913
vt -0.0299844795859679 -0.0259406138853668
vt -0.0309743270208163 -0.0374965410159514
vt 1.71797357842849E-16 -0.0653333333333336
vt 1.71797357842849E-16 0.0653333333333331
vt -0.017111705281403 0.0653333333333331
vt -0.0342234105628061 0.0653333333333331
vt -0.0513351158442089 0.0653333333333331
vt -0.0684468211256121 0.0653333333333331
vt -0.0855585264070151 0.0653333333333331
vt -0.102670231688418 0.0653333333333331
vt -0.102670231688418 -0.0653333333333336
vt -0.0471238898038469 -0.10215657075974
vt -0.0354029342247064 -0.101929380925598
vt -0.0235330765596566 -0.0990670815329931
vt -0.0120580156030735 -0.0955098089419702
vt 6.79433361424262E-18 -0.0937909829926056
vt 0.0120580156030735 -0.0955098089419702
vt 0.0235330765596566 -0.0990670815329931
vt 0.0354029342247065 -0.101929380925598
vt 0.0471238898038469 -0.10215657075974
vt 0.047123889803847 0.101740581232858
vt 0.0350560204097747 0.0968589476611791
vt 0.0243461840750697 0.089156525456091
vt 0.00684447953862575 0.0723630027356752
vt 0.00373345216157071 0.0705108814716445
vt 1.97149133481234E-08 0.0696671663997685
vt -0.00373342178076118 0.0705108680453495
vt -0.0068444795386215 0.0723630027356705
vt -0.0243461840750863 0.0891565254561056
vt -0.0350560204097851 0.0968589476611849
vt -0.047123889803847 0.101740581232859
vt 0.0310866507126667 0.0588145549675923
vt 0.0368466623535885 0.0472897163449302
vt 0.0389806785564003 0.0342595028573904
vt 0.0218076082256676 0.0116585793116733
vt 0.0128650119524349 0.00938010563328455
vt -7.04825560634603E-08 0.00835099481701265
vt -0.0128651091860701 0.00938012205240949
vt -0.0218076082256675 0.0116585793116818
vt -0.0389806785563999 0.0342595028573682
vt -0.0368466623535925 0.0472897163449188
vt -0.0310866507126665 0.0588145549675923
vt -0.05172397803006 0.110971180666297
vt -0.0513683073472838 0.0513111496583215
vt -0.0513683073472838 -0.0083509948169838
vt -0.0349593304601561 -0.0083509948169838
vt -0.017479665230078 -0.0083509948169838
vt 0 -0.0083509948169838
vt 0.0174796652300781 -0.0083509948169838
vt 0.0349593304601561 -0.0083509948169838
vt 0.0513683073472842 -0.0083509948169838
vt 0.0513683073472842 0.0513111496584127
vt 0.05172397803006 0.110971180666297

o Klein Quartic\Solid
g Klein Quartic\Solid
s off

usemtl mtl_0

# face 0
f 8/8/8 1/1/1 6/6/6
f 6/6/6 1/1/1 2/2/2
f 6/6/6 2/2/2 5/5/5
f 5/5/5 2/2/2 3/3/3
f 5/5/5 3/3/3 4/4/4
f 6/6/6 7/7/7 8/8/8

# face 1
f 13/13/13 9/9/9 12/12/12
f 12/12/12 9/9/9 10/10/10
f 12/12/12 10/10/10 11/11/11

# face 2
f 14/14/14 15/15/15 16/16/16

# face 3
f 34/34/34 17/17/17 32/32/32
f 32/32/32 17/17/17 18/18/18
f 32/32/32 18/18/18 19/19/19
f 32/32/32 19/19/19 31/31/31
f 31/31/31 19/19/19 20/20/20
f 31/31/31 20/20/20 30/30/30
f 30/30/30 20/20/20 21/21/21
f 30/30/30 21/21/21 22/22/22
f 30/30/30 22/22/22 29/29/29
f 29/29/29 22/22/22 23/23/23
f 29/29/29 23/23/23 24/24/24
f 29/29/29 24/24/24 28/28/28
f 28/28/28 24/24/24 25/25/25
f 28/28/28 25/25/25 26/26/26
f 26/26/26 27/27/27 28/28/28
f 33/33/33 34/34/34 32/32/32

# face 4
f 35/35/35 36/36/36 54/54/54
f 54/54/54 36/36/36 53/53/53
f 53/53/53 36/36/36 52/52/52
f 52/52/52 36/36/36 37/37/37
f 52/52/52 37/37/37 38/38/38
f 48/48/48 49/49/49 39/39/39
f 39/39/39 49/49/49 50/50/50
f 39/39/39 50/50/50 38/38/38
f 38/38/38 50/50/50 51/51/51
f 38/38/38 51/51/51 52/52/52
f 48/48/48 39/39/39 47/47/47
f 47/47/47 39/39/39 40/40/40
f 47/47/47 40/40/40 46/46/46
f 46/46/46 40/40/40 41/41/41
f 46/46/46 41/41/41 42/42/42
f 43/43/43 44/44/44 42/42/42
f 42/42/42 44/44/44 45/45/45
f 42/42/42 45/45/45 46/46/46

# face 5
f 55/55/55 56/56/56 76/76/76
f 76/76/76 56/56/56 75/75/75
f 56/56/56 57/57/57 75/75/75
f 75/75/75 57/57/57 74/74/74
f 57/57/57 58/58/58 74/74/74
f 74/74/74 58/58/58 73/73/73
f 58/58/58 59/59/59 73/73/73
f 73/73/73 59/59/59 72/72/72
f 59/59/59 60/60/60 72/72/72
f 72/72/72 60/60/60 61/61/61
f 72/72/72 61/61/61 71/71/71
f 71/71/71 61/61/61 62/62/62
f 71/71/71 62/62/62 70/70/70
f 70/70/70 62/62/62 63/63/63
f 70/70/70 63/63/63 67/67/67
f 67/67/67 63/63/63 66/66/66
f 63/63/63 64/64/64 66/66/66
f 66/66/66 64/64/64 65/65/65
f 68/68/68 69/69/69 67/67/67
f 67/67/67 69/69/69 70/70/70
